<?xml version="1.0" encoding="UTF-8"?>
<svg id="Layer_1" data-name="Layer 1" xmlns="http://www.w3.org/2000/svg" viewBox="0 0 533.43 154.52">
  <defs>
    <style>
      .cls-1 {
        fill: #f97821;
      }

      .cls-2 {
        fill: #fdfbeb;
      }
    </style>
  </defs>
  <rect class="cls-1" x="1.22" y="1.35" width="530.15" height="151.87" rx="75.93" ry="75.93"/>
  <g>
    <g>
      <path class="cls-2" d="m161.34,86.5v28.68h-25.35V38.6h25.33v27.4c.07.02.14.05.21.07.16-.27.34-.53.49-.81,4.85-8.65,9.71-17.29,14.55-25.95.32-.57.65-.78,1.31-.78,9.3.03,18.6.02,27.9.02h.99c-.23.38-.39.66-.57.94-7.66,11.98-15.32,23.97-23.01,35.94-.39.61-.41,1.02,0,1.65,8.2,12.42,16.38,24.85,24.56,37.28.16.24.3.48.52.82-.31.02-.54.06-.77.06-9.41,0-18.83,0-28.24.02-.58,0-.85-.22-1.12-.68-5.36-9.11-10.74-18.22-16.11-27.32-.16-.26-.32-.52-.49-.78l-.2.04Z"/>
      <path class="cls-2" d="m251.17,91.81c-1.38,3.2-2.68,6.23-3.99,9.26-1.94,4.5-3.88,9-5.79,13.51-.21.5-.45.67-.99.67-6.13-.02-12.27-.02-18.4,0-.55,0-.79-.16-.96-.69-6.18-19.28-12.38-38.55-18.58-57.82-.07-.21-.11-.43-.19-.73.36,0,.64,0,.92,0,8.22,0,16.43.01,24.65-.02.72,0,.95.22,1.1.9,1.89,8.42,3.82,16.83,5.74,25.25.06.28.14.55.25,1.02.2-.4.34-.66.47-.92,3.93-8.47,7.87-16.95,11.78-25.43.27-.6.58-.84,1.26-.82,1.62.06,3.25.06,4.88,0,.65-.02.94.22,1.21.77,4.21,8.66,8.44,17.31,12.66,25.96.15.3.3.59.57,1.13,2.07-9.44,4.08-18.63,6.1-27.82h25.83c-.52,1.7-1.02,3.36-1.53,5-5.52,17.76-11.04,35.51-16.54,53.27-.23.74-.53.95-1.28.94-6.02-.03-12.04-.03-18.06,0-.61,0-.88-.2-1.12-.75-3.15-7.23-6.33-14.45-9.51-21.67-.13-.28-.26-.57-.46-1.02Z"/>
      <path class="cls-2" d="m322.9,90.86c1.17,5.9,5.08,8.35,9.43,8.6,3.14.18,6.16-.3,8.74-2.29.67-.51,1.17-1.23,1.78-1.83.2-.2.48-.43.73-.43,7.45-.02,14.89-.01,22.34,0,.05,0,.11.03.37.11-.71,1.71-1.31,3.46-2.14,5.09-3.76,7.48-9.72,12.54-17.59,15.18-9.96,3.34-19.92,3.15-29.48-1.39-10.07-4.78-15.88-12.89-17.36-23.97-1.02-7.66.35-14.9,4.55-21.46,4.36-6.8,10.65-11.04,18.37-13.09,9.31-2.47,18.52-1.99,27.33,2.04,9.71,4.45,15.57,12.02,17.32,22.62.56,3.4.44,6.82-.1,10.22-.08.49-.28.63-.72.6-.23-.02-.46,0-.68,0-13.92,0-27.84,0-41.77,0h-1.11Zm20.89-11.3c-.74-4.84-5.53-8.13-11.16-7.74-4.99.35-9.41,3.96-9.42,7.74h20.58Z"/>
      <path class="cls-2" d="m425.67,73.83h-22.5c-.14-.59-.23-1.15-.4-1.68-.53-1.62-2-2.59-3.76-2.5-1.66.08-2.8.94-3.17,2.38-.38,1.5.13,2.89,1.65,3.55,1.5.66,3.1,1.11,4.7,1.46,3.95.86,7.96,1.46,11.87,2.45,3.91.99,7.37,2.89,9.81,6.27,2.06,2.85,2.83,6.12,3.02,9.56.58,10.26-5.63,16.86-13.77,19.78-9.14,3.27-18.42,3.31-27.58.1-7.3-2.56-11.92-7.68-13.34-15.43-.2-1.09-.27-2.19-.4-3.37h23.3c.1.57.16,1.16.31,1.73.63,2.35,2.88,3.61,5.18,2.92,1.43-.43,2.25-1.39,2.43-2.87.17-1.4-.4-2.45-1.58-3.16-1.72-1.04-3.68-1.35-5.61-1.69-3.65-.64-7.32-1.15-10.83-2.38-3.87-1.36-7.33-3.31-9.72-6.77-2.21-3.2-2.94-6.82-2.86-10.63.15-8.09,4.32-13.47,11.5-16.68,5.78-2.58,11.91-3.16,18.16-2.8,4.6.26,9.03,1.25,13.12,3.44,6.08,3.25,9.65,8.28,10.44,15.18.03.25.04.51.04.77,0,.11-.02.22-.04.39Z"/>
      <path class="cls-2" d="m476.68,56v18.41h-12.64v.86c0,4.53,0,9.07,0,13.6,0,3.39,1.72,5.11,5.11,5.12,2.59,0,5.19,0,7.84,0v21.18c-.17.02-.36.06-.55.06-5.59,0-11.18.04-16.77-.02-3.6-.04-7.07-.77-10.29-2.48-4.92-2.61-7.89-6.75-9.1-12.1-.51-2.26-.71-4.62-.75-6.94-.1-6.04-.03-12.09-.03-18.14,0-.34,0-.67,0-1.11h-10.95c0-1.31.1-2.53-.02-3.73-.17-1.66.43-2.83,1.58-4.05,9.17-9.66,18.26-19.4,27.4-29.09.29-.3.8-.52,1.22-.54,1.47-.06,2.95-.03,4.53-.03v19h13.41Z"/>
    </g>
    <g>
      <path class="cls-2" d="m81.98,69.21c.36-.51.68-.91.94-1.36,2.16-3.72,4.31-7.46,6.47-11.18,2.76-4.78,5.53-9.56,8.29-14.34.17-.3.3-.38.63-.18,1.79,1.06,3.6,2.09,5.39,3.14.55.32.55.34.24.88-3.12,5.44-6.24,10.88-9.36,16.32-1.96,3.42-3.94,6.84-5.91,10.25-.04.06-.07.13-.17.32.37,0,.66,0,.95,0,6.27.02,12.53.05,18.8.07,3.85,0,7.7,0,11.55,0,.37,0,.46.12.46.47-.01,2.21,0,4.43,0,6.64,0,.26-.05.36-.33.36-6.34-.02-12.68-.05-19.01-.05-3.96,0-7.93.04-11.89.07-.13,0-.25.01-.47.03.23.46.41.87.64,1.26,2.33,4.05,4.66,8.09,6.99,12.13,2.63,4.57,5.24,9.15,7.87,13.73.13.23.14.38-.12.52-1.93,1.11-3.85,2.24-5.77,3.37-.25.15-.34,0-.44-.17-.47-.81-.94-1.62-1.41-2.44-3.37-5.83-6.73-11.66-10.11-17.49-1.25-2.15-2.52-4.28-3.79-6.42-.11-.18-.24-.35-.43-.62-5.49,9.04-10.59,18.19-15.89,27.28-.23-.13-.44-.25-.65-.38-1.75-1.02-3.49-2.05-5.25-3.05-.36-.21-.39-.4-.18-.75,2.61-4.52,5.2-9.05,7.8-13.57,2.43-4.22,4.85-8.44,7.28-12.67.12-.21.21-.43.36-.75h-31.7c0-.45,0-.82,0-1.19,0-2,0-3.99-.02-5.99,0-.4.24-.32.46-.32,2.39,0,4.78,0,7.16,0,6.48,0,12.97,0,19.45-.01,1.26,0,2.52-.04,3.78-.08.24,0,.48-.06.78-.11-.12-.25-.2-.45-.3-.63-2.01-3.51-4.02-7.02-6.03-10.53-3.02-5.26-6.04-10.53-9.07-15.79-.18-.31-.08-.43.16-.58,1.31-.77,2.61-1.54,3.92-2.31.65-.38,1.29-.75,2.03-1.18,5.29,9.05,10.43,18.2,15.9,27.29Z"/>
      <path class="cls-2" d="m85.55,70.08c.56-.29,1.03-.49,1.46-.76,3.65-2.29,7.29-4.59,10.93-6.89,4.67-2.94,9.34-5.88,14.01-8.83.29-.18.44-.2.64.13,1.09,1.77,2.21,3.53,3.31,5.29.34.54.33.56-.2.89-5.29,3.36-10.58,6.73-15.88,10.09-3.33,2.11-6.67,4.22-10,6.32-.06.04-.12.08-.3.21.33.17.59.31.84.44,5.54,2.94,11.07,5.88,16.61,8.81,3.4,1.8,6.81,3.59,10.22,5.37.33.17.36.32.19.63-1.04,1.95-2.07,3.91-3.09,5.88-.12.23-.21.29-.46.16-5.6-2.97-11.2-5.94-16.81-8.89-3.51-1.84-7.04-3.65-10.56-5.48-.11-.06-.23-.1-.43-.19,0,.51-.04.96-.02,1.42.18,4.66.36,9.33.54,13.99.2,5.27.38,10.54.57,15.81,0,.27-.05.4-.35.41-2.22.09-4.45.19-6.67.3-.29.01-.3-.16-.31-.35-.04-.94-.08-1.88-.12-2.81-.27-6.73-.53-13.46-.81-20.18-.1-2.48-.24-4.96-.36-7.45-.01-.21-.05-.42-.09-.75-9.06,5.45-17.84,11.18-26.76,16.75-.14-.23-.27-.43-.4-.63-1.07-1.72-2.14-3.44-3.22-5.14-.22-.35-.16-.53.19-.75,4.41-2.79,8.81-5.59,13.21-8.38,4.11-2.61,8.23-5.21,12.34-7.82.2-.13.38-.28.67-.5-9.4-4.94-18.72-9.84-28.06-14.75.21-.4.38-.73.56-1.06.93-1.77,1.86-3.54,2.77-5.31.18-.35.36-.17.56-.07,2.11,1.11,4.23,2.22,6.34,3.33,5.74,3.01,11.48,6.03,17.22,9.04,1.12.58,2.25,1.13,3.38,1.69.21.11.45.17.74.27.01-.28.03-.49.03-.7-.14-4.04-.29-8.09-.43-12.13-.22-6.06-.44-12.13-.68-18.19-.01-.36.13-.42.41-.43,1.52-.07,3.03-.15,4.55-.22.75-.03,1.5-.06,2.34-.1.47,10.47.76,20.96,1.37,31.55Z"/>
    </g>
  </g>
</svg>